<?xml version="1.0" standalone="no"?>
<!DOCTYPE svg PUBLIC "-//W3C//DTD SVG 20010904//EN"
 "http://www.w3.org/TR/2001/REC-SVG-20010904/DTD/svg10.dtd">
<svg version="1.0" xmlns="http://www.w3.org/2000/svg"
 width="300.000000pt" height="300.000000pt" viewBox="0 0 300.000000 300.000000"
 preserveAspectRatio="xMidYMid meet">
<metadata>
Created by potrace 1.14, written by Peter Selinger 2001-2017
</metadata>
<g transform="translate(0.000000,300.000000) scale(0.100000,-0.100000)"
fill="#000000" stroke="none">
<path d="M28 2943 c-6 -7 -7 -13 -2 -13 5 0 2 -5 -6 -10 -9 -6 -10 -10 -3 -10
6 0 15 5 18 10 4 6 11 7 17 4 6 -4 8 -3 5 3 -3 5 0 10 8 10 8 0 11 -5 8 -10
-3 -6 -2 -8 3 -4 8 4 12 -243 4 -250 -1 -2 -4 -7 -5 -13 -1 -5 -4 -12 -5 -15
-6 -13 -5 -31 2 -42 5 -6 5 -14 -2 -18 -6 -4 -10 -3 -9 2 1 4 0 11 -1 16 -1 4
-3 75 -4 157 -1 93 -5 150 -11 150 -5 0 -9 -9 -9 -19 1 -11 -4 -17 -10 -15 -8
3 -11 -41 -11 -150 0 -89 4 -152 9 -149 5 4 6 1 2 -5 -3 -5 -7 -50 -8 -99 -1
-48 -6 -96 -11 -107 -6 -13 -6 -16 2 -11 8 5 11 -12 10 -59 -1 -36 -5 -63 -9
-61 -4 2 -7 -2 -7 -10 0 -8 4 -12 8 -10 4 3 10 -2 13 -11 3 -8 2 -13 -2 -10
-4 2 -6 -44 -6 -102 1 -59 -3 -115 -8 -126 -7 -13 -7 -16 1 -12 6 4 11 0 11
-9 0 -9 -5 -26 -11 -37 -6 -11 -7 -18 -1 -14 5 3 9 -5 9 -19 0 -14 -3 -23 -7
-20 -3 2 -7 -2 -7 -10 0 -8 4 -12 7 -10 4 3 8 -6 8 -20 0 -16 -5 -22 -12 -18
-6 4 -5 0 2 -9 17 -21 15 -221 -2 -211 -8 5 -8 3 0 -8 6 -8 10 -32 9 -54 -1
-22 2 -50 7 -63 5 -14 4 -21 -1 -18 -5 4 -8 -2 -6 -11 1 -10 -2 -26 -7 -37 -7
-13 -7 -16 1 -12 7 4 10 -6 9 -28 -1 -19 -5 -33 -11 -29 -5 3 -5 -2 1 -13 14
-27 13 -156 0 -148 -7 5 -8 2 -2 -7 14 -22 16 -101 2 -93 -7 5 -8 3 -2 -7 14
-22 15 -241 1 -232 -9 5 -9 3 -1 -8 14 -19 15 -58 3 -82 -8 -14 -8 -18 0 -13
8 5 11 -7 9 -38 0 -25 -4 -43 -8 -41 -4 2 -7 -2 -7 -10 0 -8 4 -12 8 -9 5 3 8
-42 7 -100 -1 -72 -5 -103 -12 -99 -6 4 -5 0 2 -9 9 -12 12 -48 11 -127 -2
-60 -5 -108 -9 -106 -3 2 -6 -7 -6 -20 0 -13 4 -21 8 -19 10 6 3 -39 -8 -57
-4 -7 -3 -9 3 -6 6 4 10 -4 11 -18 0 -14 -4 -23 -8 -20 -3 2 -7 -2 -7 -10 0
-8 4 -12 9 -9 4 3 8 1 8 -3 0 -5 14 -10 30 -11 21 -2 30 2 31 13 2 24 4 29 13
44 6 9 5 12 -1 8 -6 -4 -13 2 -16 13 -3 11 0 23 5 27 7 4 8 1 3 -7 -5 -9 -4
-11 3 -6 7 4 12 14 12 22 0 9 -5 12 -11 8 -8 -4 -9 1 -4 16 5 17 4 21 -5 15
-9 -5 -11 -4 -6 4 12 18 -14 44 -29 31 -10 -8 -15 -8 -21 1 -4 7 -3 9 3 6 5
-3 10 0 10 8 0 8 -5 11 -11 8 -6 -4 -7 -2 -3 3 5 5 12 9 15 9 4 0 14 4 22 10
12 7 13 6 3 -7 -7 -8 -10 -18 -7 -21 10 -9 46 12 39 23 -3 5 4 14 16 20 20 11
20 12 2 25 -10 7 -21 11 -24 9 -8 -5 -21 24 -24 53 -1 15 2 19 13 16 12 -5 12
-3 1 18 -20 36 -19 46 4 44 13 -1 22 -10 24 -24 2 -13 -1 -20 -7 -16 -5 3 -10
1 -10 -4 0 -6 5 -12 10 -12 6 -1 15 -2 20 -3 6 0 9 -5 8 -11 -2 -5 -6 -9 -10
-7 -5 1 -8 -3 -8 -9 0 -5 -5 -7 -10 -4 -6 4 -8 11 -5 16 3 5 -1 6 -11 2 -15
-5 -14 -7 2 -17 41 -23 55 -15 59 35 2 21 -3 33 -16 40 -11 5 -17 14 -14 19 3
5 0 12 -6 15 -5 4 -8 14 -5 22 3 8 1 11 -4 8 -6 -3 -10 -1 -10 4 0 6 -5 11
-10 11 -6 0 -3 -11 5 -24 13 -19 14 -26 3 -32 -7 -4 -10 -4 -6 1 4 4 2 17 -4
29 -21 38 -19 46 10 35 15 -6 29 -11 32 -12 3 -1 4 -6 2 -10 -1 -4 5 -10 13
-13 11 -4 12 -11 5 -24 -7 -13 -5 -21 5 -30 8 -7 12 -16 9 -21 -3 -5 0 -9 6
-9 8 0 8 -6 0 -21 -9 -16 -8 -24 4 -38 10 -10 13 -27 10 -42 -3 -13 -6 -29 -6
-36 -1 -7 -5 -10 -10 -7 -5 3 -6 10 -2 15 3 5 8 21 10 36 4 22 3 24 -10 14
-10 -8 -16 -9 -21 -1 -4 6 -3 9 2 8 4 -2 9 0 11 5 5 16 1 19 -13 7 -12 -10
-13 -16 -3 -27 24 -30 17 -50 -16 -44 -5 1 -4 -5 3 -13 7 -9 18 -14 24 -13 6
1 12 -4 13 -10 3 -27 5 -28 14 -13 8 11 9 8 6 -14 -3 -16 -8 -31 -12 -35 -4
-3 -4 2 -1 11 3 9 0 22 -8 28 -11 9 -13 5 -11 -22 2 -20 8 -32 15 -30 7 1 10
-2 6 -8 -5 -8 -11 -8 -20 0 -9 7 -16 6 -25 -5 -7 -9 -10 -18 -6 -22 3 -3 6 -1
6 4 0 10 7 10 39 4 2 -1 -2 -8 -9 -16 -7 -8 -17 -12 -24 -8 -6 3 -8 3 -4 -2 9
-9 -11 -37 -21 -31 -4 3 -8 -5 -8 -17 -2 -15 0 -18 6 -8 7 11 9 11 13 0 3 -8
19 -14 37 -15 29 -1 31 1 27 27 -2 15 -1 31 2 34 4 4 7 12 7 18 1 7 7 11 15 9
8 -2 11 0 7 5 -5 4 -14 8 -20 8 -7 1 -11 5 -10 10 11 67 11 85 4 90 -5 3 -8
13 -6 23 2 9 4 21 4 25 1 5 7 5 14 1 9 -6 9 -5 0 7 -7 9 -8 20 -3 29 10 16 3
33 -11 25 -13 -9 -11 9 3 23 8 8 8 15 -1 26 -8 10 -9 16 -1 21 6 3 7 12 3 18
-11 18 -10 100 2 116 7 11 7 13 -3 7 -8 -5 -12 0 -12 15 0 16 3 19 13 11 6 -6
15 -11 20 -11 4 -1 8 -1 10 -2 19 -6 36 -6 32 1 -5 9 19 32 26 25 3 -2 5 6 5
20 0 13 -4 21 -10 18 -6 -4 -6 1 -2 13 14 35 14 51 1 51 -8 0 -13 -3 -12 -6 1
-3 -2 -7 -8 -8 -5 -1 -8 6 -7 15 2 9 1 14 -2 11 -4 -4 -8 -16 -11 -27 -3 -16
1 -20 15 -17 14 3 18 -2 16 -21 -2 -13 -7 -24 -12 -24 -5 1 -8 9 -6 18 2 14 1
15 -7 2 -5 -8 -8 -17 -6 -21 3 -3 -4 -14 -15 -24 -18 -16 -20 -16 -26 -1 -9
23 -34 2 -29 -24 2 -11 -1 -22 -6 -26 -6 -3 -8 4 -6 18 9 43 19 68 27 63 19
-12 19 15 0 28 -11 7 -17 17 -13 20 3 4 12 2 20 -5 11 -9 13 -8 11 3 -2 8 3
13 10 11 8 -1 11 2 7 8 -3 6 -12 7 -18 3 -24 -15 -33 -10 -31 16 1 14 6 25 11
24 6 -1 9 10 8 25 -1 15 2 35 7 44 5 10 4 19 -2 23 -6 4 -8 11 -4 16 3 5 2 8
-3 7 -4 -2 -8 2 -8 7 0 6 3 9 7 8 4 -2 4 5 1 14 -4 10 -2 14 5 9 6 -3 14 -1
18 5 4 8 3 9 -4 5 -11 -7 -18 16 -12 39 8 28 4 60 -7 60 -16 0 -18 5 -9 33 4
12 12 20 17 16 6 -3 5 -12 -3 -22 -12 -15 -11 -16 5 -3 12 10 15 17 7 25 -13
13 -13 29 0 21 6 -4 9 -1 8 7 -2 7 3 12 10 10 8 -1 11 2 7 8 -3 6 -11 8 -16 5
-5 -4 -12 1 -15 9 -3 9 -10 16 -16 16 -5 0 -6 -6 -1 -12 13 -21 12 -37 -3 -49
-8 -6 -11 -16 -7 -22 4 -6 1 -7 -7 -2 -10 6 -12 4 -7 -8 3 -9 1 -19 -5 -23 -7
-5 -8 -2 -3 6 6 9 4 11 -5 5 -8 -5 -11 -4 -7 3 9 14 -3 43 -15 36 -5 -3 -4
-12 4 -22 8 -10 9 -13 1 -9 -6 4 -15 2 -19 -5 -4 -7 -3 -10 1 -5 11 9 45 -21
45 -40 0 -8 5 -11 10 -8 6 4 7 12 4 18 -4 7 1 4 11 -5 14 -13 16 -20 7 -31 -6
-7 -10 -23 -8 -34 2 -11 0 -26 -6 -34 -8 -11 -9 -11 -4 3 3 10 1 20 -5 24 -6
4 -4 15 5 30 20 30 20 40 1 24 -8 -7 -15 -20 -15 -29 0 -14 -2 -14 -10 -1 -8
12 -10 12 -10 1 0 -11 -3 -11 -15 -1 -12 10 -13 16 -4 27 10 11 14 11 20 1 4
-7 10 -10 13 -7 3 3 -5 16 -19 29 -24 23 -24 23 -20 2 2 -12 0 -24 -6 -27 -5
-4 -7 11 -5 34 2 23 0 44 -6 47 -5 4 -5 11 1 18 6 7 7 17 3 21 -4 5 -1 5 6 1
7 -4 12 -1 12 9 0 9 -4 14 -9 10 -5 -3 -12 -1 -15 4 -4 5 -1 13 5 17 8 5 9 3
4 -6 -5 -8 -4 -11 3 -6 7 4 6 14 -3 33 -9 17 -11 31 -5 38 6 7 6 15 2 19 -4 4
0 6 8 4 16 -3 30 -18 30 -32 0 -5 -6 -3 -14 3 -11 9 -16 9 -22 0 -4 -7 -3 -9
4 -5 6 3 13 2 17 -4 4 -6 11 -8 16 -5 5 4 9 1 9 -5 0 -6 5 -8 11 -5 7 5 5 13
-5 24 -15 17 -16 37 -3 59 5 7 3 12 -3 12 -6 0 -9 4 -5 9 3 5 0 13 -6 17 -9 5
-10 0 -6 -17 6 -23 5 -23 -8 -5 -8 10 -12 23 -8 29 3 6 2 7 -4 4 -5 -3 -10 0
-10 8 0 8 3 12 7 10 3 -2 6 7 6 20 0 13 -4 21 -8 19 -5 -3 -5 -10 -2 -16 4 -6
3 -8 -3 -5 -8 5 -10 56 -3 65 1 1 3 6 4 11 0 5 4 13 8 17 4 4 3 13 -2 20 -8 9
-6 12 7 10 18 -1 52 -37 43 -46 -9 -9 -30 -8 -30 1 0 5 -5 9 -12 9 -9 0 -9 -3
0 -12 7 -7 12 -17 12 -23 0 -5 -4 -4 -9 4 -6 9 -11 10 -15 2 -4 -6 -2 -11 3
-11 22 0 26 -2 42 -16 9 -8 19 -11 22 -7 4 3 7 0 7 -9 0 -24 -12 -29 -26 -10
-12 16 -14 14 -14 -15 0 -5 6 -8 13 -8 7 0 12 -13 12 -30 1 -21 5 -29 15 -27
8 2 12 0 8 -3 -4 -4 -3 -16 2 -25 7 -13 5 -21 -5 -30 -7 -6 -12 -20 -10 -31 2
-11 0 -17 -6 -14 -5 4 -9 1 -9 -5 0 -6 -4 -9 -9 -5 -5 3 -12 1 -15 -4 -4 -5
-2 -13 4 -16 6 -4 10 -14 9 -23 -3 -31 1 -43 11 -37 6 4 8 11 4 16 -3 5 0 8 7
7 17 -4 18 34 1 40 -8 2 -10 -3 -6 -15 5 -15 4 -15 -5 -3 -8 11 -7 18 6 27 20
16 43 77 33 93 -4 6 -5 22 -2 36 4 21 7 23 21 12 9 -7 6 -1 -7 13 -18 21 -22
35 -19 72 1 25 9 52 16 61 13 15 8 21 -13 17 -5 -1 -6 8 -2 21 3 13 6 29 6 36
0 7 5 10 10 7 6 -4 7 -11 4 -17 -5 -7 -2 -8 7 -2 8 5 17 9 21 9 3 0 10 3 14 7
3 4 -3 6 -14 3 -11 -2 -26 3 -32 11 -7 7 -16 11 -21 8 -5 -3 -9 2 -9 11 0 9 5
13 10 10 6 -3 13 1 16 9 3 9 10 13 15 10 5 -3 8 -1 7 4 -2 6 2 10 7 10 6 0 9
-3 8 -7 -1 -4 4 -8 11 -8 7 0 13 6 13 13 0 7 -5 12 -11 11 -6 -1 -10 8 -10 21
1 12 -1 20 -5 17 -3 -4 -6 -11 -6 -16 0 -5 -4 -9 -10 -8 -5 1 -9 5 -7 11 1 5
-2 7 -8 3 -8 -5 -8 -11 0 -20 8 -9 8 -15 0 -20 -11 -7 -12 -5 -14 45 -1 19 3
41 9 49 7 11 7 13 -2 7 -9 -5 -13 2 -13 25 0 18 3 29 8 25 4 -4 7 -13 7 -19 0
-7 5 -12 10 -12 6 0 16 -4 23 -8 8 -6 11 -4 10 4 -2 7 3 14 10 15 6 1 15 3 20
4 4 1 10 2 13 2 10 -1 4 57 -7 68 -8 8 -11 6 -11 -4 0 -8 4 -13 9 -10 4 3 6
-5 5 -18 -2 -13 -8 -21 -13 -20 -5 2 -8 7 -7 11 1 4 -4 8 -12 8 -7 0 -12 -8
-10 -18 6 -30 -12 -31 -34 -3 -22 28 -19 53 4 34 9 -8 15 -8 20 0 3 6 10 8 14
6 4 -3 7 4 8 14 1 11 -2 22 -8 25 -5 4 -6 -2 -2 -11 4 -12 3 -15 -6 -10 -6 4
-10 3 -9 -2 2 -6 -1 -10 -7 -10 -5 0 -9 4 -8 9 2 5 -2 8 -9 6 -14 -2 -18 23
-6 40 6 8 3 11 -9 9 -13 -2 -18 -12 -18 -39 -1 -20 2 -34 5 -32 4 2 7 -2 7
-10 0 -10 -4 -12 -12 -5 -7 6 -11 24 -10 40 1 16 -4 35 -11 41 -16 13 -18 1
-5 -20 6 -9 6 -22 1 -31 -5 -10 -5 -21 0 -26 6 -6 5 -15 -1 -24 -9 -13 -10
-12 -5 3 6 20 -9 24 -17 4 -3 -7 3 -19 13 -25 10 -6 17 -18 16 -26 -4 -26 -14
-29 -21 -7 -3 12 -11 19 -16 16 -5 -4 -9 -1 -9 4 0 6 -5 11 -11 11 -5 0 -7 -6
-3 -12 4 -7 3 -9 -2 -5 -14 13 -13 56 2 50 7 -2 17 5 24 16 6 12 8 21 4 21 -3
0 0 8 7 17 10 11 10 14 2 9 -8 -4 -13 -2 -13 4 0 6 -4 9 -8 6 -5 -3 -9 1 -9 9
0 12 3 12 15 3 11 -10 13 -8 10 8 -1 10 2 18 9 17 12 -3 12 22 -1 34 -4 4 -6
1 -4 -7 2 -8 -3 -14 -10 -13 -6 2 -13 -3 -13 -10 -1 -6 -5 2 -8 18 -4 17 -3
36 2 43 5 6 6 12 2 12 -4 0 -2 7 5 15 7 8 9 15 5 15 -4 0 -2 7 5 15 13 15 35
11 25 -6 -4 -5 -2 -9 4 -9 5 0 8 -8 6 -17 -2 -10 -4 -22 -4 -26 -1 -5 -6 -5
-11 -2 -6 4 -8 10 -6 14 3 4 -1 8 -8 8 -8 0 -13 -7 -11 -16 1 -9 7 -16 14 -16
6 0 16 -6 20 -14 11 -17 18 -3 16 31 -1 15 1 25 5 23 10 -6 6 -47 -5 -65 -13
-21 -15 -39 -4 -46 5 -3 9 4 9 15 0 11 4 23 10 26 6 4 7 -1 4 -12 -4 -14 -4
-15 4 -4 8 11 10 11 15 0 3 -9 6 -10 6 -2 1 6 -3 15 -9 18 -14 9 -12 58 2 74
9 10 9 12 1 7 -6 -3 -14 -2 -18 4 -4 6 -10 8 -14 6 -10 -6 -8 40 2 50 3 4 5
-3 2 -15 -2 -11 0 -21 5 -21 10 0 24 31 20 45 -1 6 -3 21 -4 35 0 14 -6 24
-13 23 -16 -4 -17 14 -3 19 6 2 12 17 14 33 2 17 8 29 14 28 12 -3 10 15 -6
43 -9 17 -9 24 2 33 7 6 17 7 22 3 5 -4 -1 5 -14 19 -12 14 -19 29 -15 33 5 4
4 6 -2 4 -15 -5 -19 5 -11 30 4 12 12 20 17 16 6 -3 5 -12 -3 -22 -11 -15 -11
-15 3 -5 9 7 20 9 25 5 5 -4 1 2 -9 14 -19 23 -23 39 -5 28 7 -5 8 -3 2 7 -5
8 -9 22 -10 32 -3 41 -4 42 -14 27 -8 -12 -10 -9 -10 13 0 15 4 26 9 25 5 -2
8 2 8 7 -1 6 -8 8 -17 6 -12 -2 -12 0 3 16 19 22 22 49 7 58 -6 4 -8 11 -4 16
3 5 10 7 15 3 5 -3 8 0 7 7 -2 7 6 13 17 13 12 0 19 -5 17 -14 -2 -8 0 -11 5
-7 4 5 8 14 8 20 1 7 7 10 15 9 8 -2 12 0 7 4 -4 4 1 16 10 26 12 13 13 18 4
16 -7 -2 -16 3 -19 11 -2 8 0 11 5 8 5 -3 10 0 10 8 0 8 -4 12 -8 10 -4 -3 -9
2 -13 10 -3 8 -2 15 3 15 4 0 8 6 8 13 0 6 4 21 8 32 5 16 5 17 -4 5 -6 -8
-11 -10 -11 -4 0 6 7 17 15 24 12 10 13 16 3 29 -7 9 -8 13 -4 9 5 -4 15 0 23
10 12 16 13 15 6 -3 -6 -18 -5 -18 10 -7 13 11 14 17 4 27 -10 11 -15 10 -30
-6 -21 -22 -45 -16 -26 7 6 8 8 14 4 14 -4 0 -2 7 5 15 7 8 16 12 21 9 5 -3 8
0 7 7 -2 10 16 13 67 14 73 0 87 -11 59 -45 -7 -8 -13 -18 -13 -22 -1 -5 -1
-11 -2 -15 0 -5 -5 3 -10 17 l-10 25 -19 -25 c-10 -14 -26 -34 -35 -45 -16
-19 -16 -18 -1 7 18 31 21 63 5 53 -6 -4 -8 -10 -5 -13 3 -3 0 -12 -8 -21 -8
-9 -15 -20 -16 -26 -1 -5 -6 -9 -12 -7 -5 1 -6 -3 -2 -9 5 -8 3 -9 -6 -4 -9 5
-11 4 -6 -4 4 -6 13 -8 19 -4 20 13 39 12 34 -1 -3 -7 1 -13 8 -13 9 0 11 6 6
16 -5 11 0 28 17 51 19 27 23 30 19 12 -3 -12 -1 -20 4 -16 5 3 9 -1 9 -8 0
-9 3 -9 10 2 5 8 10 11 10 7 0 -4 10 -2 23 5 29 16 39 17 56 4 11 -8 13 -8 8
1 -9 14 20 32 44 28 18 -3 19 10 5 33 -4 7 -5 16 -2 19 3 4 6 1 6 -6 0 -7 5
-9 10 -6 6 4 10 3 9 -2 -3 -20 2 -34 11 -28 6 4 8 10 5 15 -3 5 -1 11 4 14 5
4 13 1 17 -5 5 -8 3 -9 -7 -4 -11 6 -11 5 -3 -4 6 -7 29 -14 50 -15 22 -2 38
-8 37 -13 -1 -6 5 -10 15 -8 9 1 16 9 15 16 -2 9 5 15 16 15 16 0 18 -3 8 -15
-9 -11 -9 -13 0 -8 6 4 13 2 15 -5 2 -6 11 -12 20 -14 10 -1 15 3 12 11 -5 13
11 15 31 4 9 -5 51 -4 58 1 1 1 10 3 20 5 12 2 17 -1 14 -9 -3 -7 4 -12 18
-12 14 0 21 5 18 12 -4 12 12 14 32 3 9 -5 51 -4 58 1 1 1 10 3 20 5 12 2 17
-1 14 -9 -3 -7 4 -12 18 -12 14 0 21 5 18 12 -4 12 12 14 32 3 9 -5 51 -4 58
1 1 1 10 3 20 5 12 2 17 -1 14 -9 -3 -7 4 -12 18 -12 14 0 21 5 18 12 -4 12
12 14 32 3 9 -5 51 -4 58 1 1 1 10 3 20 5 12 2 17 -1 14 -9 -3 -7 4 -12 18
-12 14 0 21 5 18 12 -4 12 12 14 32 3 9 -5 51 -4 58 1 1 1 10 3 20 5 12 2 17
-1 14 -9 -3 -7 4 -12 18 -12 14 0 21 5 18 12 -4 12 12 14 32 3 9 -5 51 -4 58
1 1 1 10 3 20 5 12 2 17 -1 14 -9 -3 -7 4 -12 18 -12 14 0 21 5 18 12 -4 12
12 14 32 3 9 -5 51 -4 58 1 1 1 10 3 20 5 12 2 17 -1 14 -9 -3 -7 4 -12 18
-12 14 0 21 5 18 12 -3 8 2 11 14 9 10 -2 19 -4 21 -5 6 -5 48 -6 57 -1 20 11
36 9 32 -3 -3 -7 4 -12 18 -12 14 0 21 5 18 12 -4 12 12 14 32 3 9 -5 51 -4
58 1 1 1 10 3 20 5 12 2 17 -1 14 -9 -3 -7 4 -12 18 -12 14 0 21 5 18 12 -4
12 12 14 32 3 9 -5 51 -4 58 1 1 1 10 3 20 5 12 2 17 -1 14 -9 -3 -7 4 -12 18
-12 14 0 21 5 18 12 -4 12 12 14 32 3 9 -5 51 -4 58 1 1 1 10 3 20 5 12 2 17
-1 14 -9 -3 -7 4 -12 18 -12 14 0 21 5 18 12 -4 12 12 14 32 3 9 -5 51 -4 58
1 1 1 10 3 20 5 12 2 17 -1 14 -9 -3 -7 4 -12 18 -12 14 0 21 5 18 12 -4 12
12 14 32 3 9 -5 51 -4 58 1 1 1 10 3 20 5 12 2 17 -1 14 -9 -3 -7 4 -12 18
-12 14 0 21 5 18 12 -3 8 2 11 14 9 10 -2 18 -4 18 -5 0 -1 12 -3 27 -4 15 -2
25 1 22 6 -3 4 -9 6 -14 3 -5 -3 -11 -1 -14 4 -12 19 24 19 38 0 13 -19 14
-17 13 20 0 22 -4 38 -9 35 -5 -3 -6 -9 -3 -14 3 -5 0 -12 -6 -15 -6 -4 -13 2
-16 14 -3 11 -9 18 -14 15 -5 -3 -7 -10 -4 -15 4 -5 1 -9 -5 -9 -6 0 -9 -4 -5
-9 3 -5 1 -13 -5 -16 -6 -4 -10 -3 -9 2 4 25 -2 53 -11 48 -6 -4 -8 -10 -5
-15 3 -5 0 -12 -6 -15 -6 -4 -13 2 -16 14 -3 11 -9 18 -14 15 -5 -3 -7 -10 -4
-15 4 -5 1 -9 -5 -9 -6 0 -9 -4 -5 -9 3 -5 1 -13 -5 -16 -6 -4 -10 -3 -9 2 4
25 -2 53 -11 48 -6 -4 -8 -10 -5 -15 3 -5 0 -12 -6 -15 -6 -4 -13 2 -16 14 -3
11 -9 18 -14 15 -5 -3 -7 -10 -4 -15 4 -5 1 -9 -5 -9 -6 0 -9 -4 -5 -9 3 -5 1
-13 -5 -16 -6 -4 -10 -3 -9 2 4 25 -2 53 -11 48 -6 -4 -8 -10 -5 -15 3 -5 0
-12 -6 -15 -6 -4 -13 2 -16 14 -3 11 -9 18 -14 15 -5 -3 -7 -10 -4 -15 4 -5 1
-9 -5 -9 -6 0 -9 -4 -5 -9 3 -5 1 -13 -5 -16 -6 -4 -10 -3 -9 2 4 25 -2 53
-11 48 -6 -4 -8 -10 -5 -15 3 -5 0 -12 -6 -15 -6 -4 -13 2 -16 14 -3 11 -9 18
-14 15 -5 -3 -7 -10 -4 -15 4 -5 1 -9 -5 -9 -6 0 -9 -4 -5 -9 3 -5 1 -13 -5
-16 -6 -4 -10 -3 -9 2 4 25 -2 53 -11 48 -6 -4 -8 -10 -5 -15 3 -5 0 -12 -6
-15 -6 -4 -13 2 -16 14 -3 11 -9 18 -14 15 -5 -3 -7 -10 -4 -15 4 -5 1 -9 -5
-9 -6 0 -9 -4 -5 -9 3 -5 1 -13 -5 -16 -6 -4 -10 -3 -9 2 4 25 -2 53 -11 48
-6 -4 -8 -10 -5 -15 3 -5 0 -12 -6 -15 -6 -4 -13 2 -16 14 -3 11 -9 18 -14 15
-5 -3 -7 -10 -4 -15 4 -5 1 -9 -5 -9 -6 0 -9 -4 -5 -9 3 -5 1 -13 -5 -16 -6
-4 -10 -3 -9 2 4 25 -2 53 -11 48 -6 -4 -8 -10 -5 -15 3 -5 0 -12 -6 -15 -6
-4 -13 2 -16 14 -3 11 -9 18 -14 15 -5 -3 -7 -10 -4 -15 4 -5 1 -9 -5 -9 -6 0
-9 -4 -5 -9 3 -5 1 -13 -5 -16 -6 -4 -10 -3 -9 2 4 25 -2 53 -11 48 -6 -4 -8
-10 -5 -15 3 -5 0 -12 -6 -15 -6 -4 -13 2 -16 14 -3 11 -9 18 -14 15 -5 -3 -7
-10 -4 -15 4 -5 1 -9 -5 -9 -6 0 -9 -4 -5 -9 3 -5 1 -13 -5 -16 -6 -4 -10 -3
-9 2 4 25 -2 53 -11 48 -6 -4 -8 -10 -5 -15 3 -5 0 -12 -6 -15 -6 -4 -13 2
-16 14 -3 11 -9 18 -14 15 -5 -3 -7 -10 -4 -15 4 -5 1 -9 -5 -9 -6 0 -9 -4 -5
-9 3 -5 1 -13 -5 -16 -6 -4 -10 -3 -9 2 4 25 -2 53 -11 48 -6 -4 -8 -10 -5
-15 3 -5 0 -12 -6 -15 -6 -4 -13 2 -16 14 -3 11 -9 18 -14 15 -5 -3 -7 -10 -4
-15 4 -5 1 -9 -5 -9 -6 0 -9 -4 -5 -9 3 -5 1 -13 -5 -16 -6 -4 -10 -3 -9 2 4
25 -2 53 -11 48 -6 -4 -8 -10 -5 -15 3 -5 0 -12 -6 -15 -6 -4 -13 2 -16 14 -3
11 -9 18 -14 15 -5 -3 -7 -10 -4 -15 4 -5 1 -9 -5 -9 -6 0 -9 -4 -5 -9 3 -5 1
-13 -5 -16 -6 -4 -10 -3 -9 2 4 25 -2 53 -11 48 -6 -4 -8 -10 -5 -15 3 -5 0
-12 -6 -15 -6 -4 -13 2 -16 14 -3 11 -9 18 -14 15 -5 -3 -7 -10 -4 -15 4 -5 1
-9 -5 -9 -6 0 -9 -4 -5 -9 3 -5 1 -13 -5 -16 -6 -4 -10 -3 -9 2 4 25 -2 53
-11 48 -6 -4 -8 -10 -5 -15 3 -5 0 -12 -6 -15 -6 -4 -13 2 -16 14 -3 11 -9 18
-14 15 -5 -3 -7 -10 -4 -15 4 -5 1 -9 -5 -9 -6 0 -9 -4 -5 -9 3 -5 1 -13 -5
-16 -6 -4 -10 -3 -9 2 4 25 -2 53 -11 48 -6 -4 -8 -10 -5 -15 3 -5 0 -12 -6
-15 -6 -4 -13 2 -16 14 -3 11 -9 18 -14 15 -5 -3 -7 -10 -4 -15 4 -5 1 -9 -5
-9 -6 0 -9 -4 -5 -9 3 -5 1 -13 -5 -16 -6 -4 -10 -3 -9 2 4 25 -2 53 -11 48
-6 -4 -8 -10 -5 -15 3 -5 0 -12 -6 -15 -6 -4 -13 2 -16 14 -3 11 -9 18 -14 15
-5 -3 -7 -10 -4 -15 4 -5 1 -9 -5 -9 -6 0 -9 -4 -5 -9 3 -5 1 -13 -5 -16 -6
-4 -10 -3 -9 2 4 25 -2 53 -11 48 -6 -4 -8 -10 -5 -15 3 -5 0 -12 -6 -15 -6
-4 -13 2 -16 14 -3 11 -9 18 -14 15 -5 -3 -7 -10 -4 -15 4 -5 1 -9 -5 -9 -6 0
-9 -4 -5 -9 3 -5 1 -13 -5 -16 -6 -4 -10 -3 -9 2 4 25 -2 53 -11 48 -6 -4 -8
-10 -5 -15 3 -5 0 -12 -6 -15 -6 -4 -13 2 -16 14 -3 11 -9 18 -14 15 -5 -3 -7
-10 -4 -15 4 -5 1 -9 -5 -9 -6 0 -9 -4 -5 -9 3 -5 1 -13 -5 -16 -6 -4 -10 -3
-9 2 4 25 -2 53 -11 48 -6 -4 -8 -10 -5 -15 3 -5 0 -12 -6 -15 -6 -4 -13 2
-16 14 -3 11 -9 18 -14 15 -5 -3 -7 -10 -4 -15 4 -5 1 -9 -5 -9 -6 0 -9 -4 -5
-9 3 -5 1 -13 -5 -16 -6 -4 -10 -3 -9 2 4 25 -2 53 -11 48 -6 -4 -8 -10 -5
-15 3 -5 0 -12 -6 -15 -6 -4 -13 2 -16 14 -3 11 -9 18 -14 15 -5 -3 -7 -10 -4
-15 4 -5 1 -9 -5 -9 -6 0 -9 -4 -5 -9 3 -5 1 -13 -5 -16 -6 -4 -10 -3 -9 2 4
25 -2 53 -11 48 -6 -4 -8 -10 -5 -15 3 -5 0 -12 -6 -15 -6 -4 -13 2 -16 14 -3
11 -9 18 -14 15 -5 -3 -7 -10 -4 -15 4 -5 1 -9 -5 -9 -6 0 -9 -4 -5 -9 3 -5 1
-13 -5 -16 -6 -4 -10 -3 -9 2 4 25 -2 53 -11 48 -6 -4 -8 -10 -5 -15 3 -5 0
-12 -6 -15 -6 -4 -13 2 -16 14 -3 11 -9 18 -14 15 -5 -3 -7 -10 -4 -15 4 -5 1
-9 -5 -9 -6 0 -9 -4 -5 -9 3 -5 1 -13 -5 -16 -6 -4 -10 -3 -9 2 4 25 -2 53
-11 48 -6 -4 -8 -10 -5 -15 3 -5 0 -12 -6 -15 -6 -4 -13 2 -16 14 -3 11 -9 18
-14 15 -5 -3 -7 -10 -4 -15 4 -5 1 -9 -5 -9 -6 0 -9 -4 -5 -9 3 -5 1 -13 -5
-16 -6 -4 -10 -3 -9 2 4 25 -2 53 -11 48 -6 -4 -8 -10 -5 -15 3 -5 0 -12 -6
-15 -6 -4 -13 2 -16 14 -3 11 -9 18 -14 15 -5 -3 -7 -10 -4 -15 4 -5 1 -9 -5
-9 -6 0 -9 -4 -5 -9 3 -5 1 -13 -5 -16 -6 -4 -10 -3 -9 2 4 25 -2 53 -11 48
-6 -4 -8 -10 -5 -15 3 -5 0 -12 -6 -15 -6 -4 -13 2 -16 14 -3 11 -9 18 -14 15
-5 -3 -7 -10 -4 -15 4 -5 1 -9 -5 -9 -6 0 -9 -4 -5 -9 3 -5 1 -13 -5 -16 -6
-4 -10 -3 -9 2 4 25 -2 53 -11 48 -6 -4 -8 -10 -5 -15 3 -5 0 -12 -6 -15 -6
-4 -13 2 -16 14 -3 11 -9 18 -14 15 -5 -3 -7 -10 -4 -15 4 -5 1 -9 -5 -9 -6 0
-9 -4 -5 -9 3 -5 1 -13 -5 -16 -6 -4 -10 -3 -9 2 4 25 -2 53 -11 48 -6 -4 -8
-10 -5 -15 3 -5 0 -12 -6 -15 -6 -4 -13 2 -16 14 -3 11 -9 18 -14 15 -5 -3 -7
-10 -4 -15 4 -5 1 -9 -5 -9 -6 0 -9 -4 -5 -9 3 -5 1 -13 -5 -16 -6 -4 -10 -3
-9 2 4 25 -2 53 -11 48 -6 -4 -8 -10 -5 -15 3 -5 0 -12 -6 -15 -6 -4 -13 2
-16 14 -3 11 -9 18 -14 15 -5 -3 -7 -9 -4 -14 3 -4 -2 -10 -10 -14 -10 -4 -15
1 -15 15 0 11 -5 17 -10 14 -6 -4 -8 -10 -5 -15 3 -5 0 -12 -6 -15 -6 -4 -13
2 -16 14 -3 11 -9 18 -14 15 -5 -3 -7 -9 -4 -14 3 -4 -2 -10 -10 -14 -8 -3
-17 0 -21 6 -4 7 -3 8 4 4 8 -5 10 -2 6 8 -8 21 -13 20 -24 -6 l-9 -23 -7 23
c-5 19 -9 20 -22 10 -12 -10 -16 -10 -19 0 -3 6 -10 9 -16 5 -7 -4 -8 0 -3 13
7 18 6 18 -12 -1 -11 -11 -18 -23 -16 -27 3 -4 0 -9 -6 -13 -6 -4 -7 -11 -4
-17 4 -7 2 -8 -5 -4 -9 6 -9 11 -1 21 8 10 8 15 0 20 -8 5 -8 11 1 21 6 8 8
14 4 14 -4 0 -3 6 3 13 8 9 264 12 1224 12 667 0 1218 -3 1224 -7 7 -5 11 2
10 20 l-1 27 -1468 0 c-1164 0 -1471 -3 -1479 -12z m2939 -8 c0 -7 -410 -10
-1219 -10 -1149 0 -1220 -1 -1235 -17 -9 -10 -13 -18 -9 -18 4 0 4 -6 -1 -12
-4 -7 -8 -28 -8 -45 -1 -18 -5 -36 -10 -40 -4 -5 -5 -3 -2 3 4 6 0 20 -8 30
-12 16 -11 22 3 38 11 13 12 16 3 11 -10 -6 -12 -4 -6 5 6 9 4 11 -5 5 -9 -6
-11 -4 -5 5 5 8 4 11 -2 7 -5 -4 -9 -19 -8 -34 1 -15 -5 -36 -13 -45 -16 -19
-3 -25 14 -8 7 7 11 6 11 -5 0 -8 -3 -13 -5 -10 -3 3 -16 -2 -30 -11 -17 -11
-22 -12 -16 -3 5 8 9 17 10 22 1 4 3 9 4 12 18 37 -2 51 -74 50 -54 0 -69 -4
-90 -24 -14 -13 -23 -27 -21 -32 3 -4 1 -10 -5 -14 -6 -4 -4 -15 5 -29 14 -21
14 -25 0 -36 -11 -9 -12 -17 -4 -32 6 -11 7 -18 2 -15 -5 4 -10 -9 -10 -28 0
-20 4 -32 10 -28 6 3 7 1 3 -6 -4 -6 -3 -18 3 -25 14 -16 -15 -45 -41 -41 -21
4 -64 -40 -49 -50 20 -12 11 -44 -19 -65 -19 -13 -28 -16 -24 -7 2 7 -1 14 -8
14 -19 0 -17 -34 2 -34 8 0 20 4 27 9 8 6 11 4 8 -9 -3 -22 13 -55 24 -49 12
8 7 -40 -7 -56 -6 -8 -8 -19 -4 -23 4 -5 1 -5 -6 -1 -20 12 -8 -31 16 -57 20
-21 21 -25 7 -37 -8 -7 -13 -15 -10 -18 3 -3 -1 -12 -8 -20 -10 -13 -9 -15 5
-9 26 9 32 -10 8 -25 -11 -7 -20 -16 -20 -21 0 -4 6 -5 12 -1 9 5 9 2 -1 -9
-7 -9 -10 -17 -6 -17 4 0 2 -7 -5 -15 -12 -15 -5 -39 10 -30 4 3 7 -3 5 -12
-1 -10 2 -26 6 -35 6 -11 5 -19 -3 -24 -6 -4 -8 -3 -4 4 13 22 -13 22 -28 0
-9 -12 -16 -18 -16 -12 0 5 6 16 12 24 11 12 10 12 -4 1 -16 -12 -22 -9 -20
10 1 3 -6 6 -14 6 -9 0 -11 -4 -5 -10 5 -5 7 -17 4 -26 -4 -14 -3 -14 6 -1 6
8 11 10 11 4 0 -18 -27 -37 -35 -24 -3 6 -10 8 -14 6 -4 -3 -8 1 -8 9 0 11 3
12 14 3 11 -9 13 -6 9 15 -2 15 -1 29 3 31 4 3 7 15 6 28 -1 13 3 29 9 37 7 9
7 12 1 9 -6 -4 -11 1 -12 10 -1 10 -3 23 -5 31 -4 17 34 24 44 8 13 -20 9 -26
-12 -22 -11 2 -20 -1 -20 -6 0 -6 6 -9 13 -6 6 2 20 -2 29 -11 16 -13 17 -13
13 6 -2 11 -9 31 -15 44 -10 21 -10 21 3 5 9 -10 18 -14 21 -9 3 5 -3 17 -14
27 -13 12 -20 14 -20 6 0 -7 -6 -11 -12 -8 -7 2 -13 14 -13 27 0 13 -7 25 -15
27 -13 4 -13 3 0 -6 11 -8 12 -11 2 -11 -8 0 -10 -5 -6 -12 5 -10 4 -10 -6 -1
-11 10 -17 10 -30 -2 -14 -13 -17 -13 -17 -1 0 8 5 14 11 13 14 -3 15 24 2 42
-9 12 -8 13 4 6 15 -9 30 -14 62 -17 10 -1 24 -15 32 -31 7 -16 16 -24 20 -19
3 6 2 14 -4 17 -8 5 -7 11 1 21 9 11 8 14 -2 14 -12 0 -12 2 0 9 8 5 9 11 3
15 -5 3 -13 -1 -16 -10 -5 -14 -9 -13 -27 7 -11 13 -18 19 -15 12 4 -6 2 -14
-3 -17 -5 -4 -8 2 -6 11 1 10 0 23 -3 28 -9 15 -9 64 0 59 4 -3 8 -1 8 5 0 5
11 8 24 5 17 -3 25 1 29 16 3 11 1 23 -4 26 -5 3 -9 1 -9 -5 0 -5 -9 -8 -20
-6 -11 2 -23 -1 -26 -7 -5 -7 -2 -8 7 -3 8 5 10 4 6 0 -13 -14 -34 -14 -34 1
0 7 4 11 9 8 4 -3 8 -2 9 3 7 65 6 73 -3 67 -7 -4 -8 -2 -4 5 11 17 18 63 8
58 -4 -3 -8 3 -8 13 0 10 4 16 8 14 4 -3 8 1 9 8 0 10 2 10 6 0 2 -6 8 -10 13
-7 4 2 15 -4 25 -15 14 -16 16 -23 7 -32 -9 -9 -12 -9 -12 1 0 7 -5 9 -12 5
-8 -5 -9 -2 -5 10 4 9 3 15 -2 11 -5 -3 -11 1 -14 7 -2 7 -4 1 -3 -14 0 -14 3
-24 5 -22 3 2 15 -3 28 -11 13 -9 23 -14 24 -13 6 22 6 44 1 52 -10 17 -9 30
3 46 10 13 12 46 6 90 0 5 -6 9 -13 7 -7 -1 -12 10 -13 28 0 17 5 30 12 30 6
0 14 3 18 7 9 9 35 -1 35 -14 0 -5 -4 -7 -9 -4 -5 4 -8 -2 -6 -11 2 -10 4 -22
4 -26 1 -5 5 -6 11 -2 5 3 7 13 4 23 -5 15 -4 15 6 2 9 -12 10 -11 5 9 -5 17
-4 22 5 16 9 -5 11 -4 6 4 -4 6 -12 8 -18 5 -7 -4 -8 -2 -4 5 4 6 12 8 18 5 7
-4 8 -2 4 5 -4 6 -12 8 -18 5 -6 -4 -9 -1 -6 7 3 8 12 13 22 11 9 -2 16 3 16
9 0 7 -3 9 -7 6 -3 -4 -13 -1 -21 6 -13 10 -14 9 -7 -2 6 -10 4 -12 -5 -6 -9
6 -11 4 -5 -6 8 -12 6 -12 -8 0 -16 13 -20 11 -14 -6 1 -5 5 -7 10 -5 4 1 7
-5 7 -14 0 -14 -3 -14 -15 -4 -14 12 -20 7 -16 -14 1 -5 -5 -4 -13 4 -9 7 -16
10 -16 6 0 -17 -3 -22 -18 -39 -13 -14 -13 -18 -2 -15 8 2 14 -5 15 -17 0 -11
-5 -20 -12 -20 -6 0 -15 -4 -20 -9 -4 -5 -3 -6 4 -2 8 4 11 0 8 -14 -2 -11 1
-19 7 -17 6 1 13 -4 16 -12 3 -9 0 -11 -9 -6 -8 5 -6 -1 4 -12 12 -14 15 -23
8 -28 -6 -3 -11 -1 -11 4 0 6 -3 10 -8 10 -22 -4 -30 3 -27 22 3 12 7 24 10
27 2 3 0 11 -5 17 -8 10 -8 52 1 63 6 7 4 249 -2 257 -5 7 475 10 1435 10 959
0 1443 -3 1443 -10z m-2267 -115 c6 -11 8 -20 6 -20 -3 0 -10 9 -16 20 -6 11
-8 20 -6 20 3 0 10 -9 16 -20z m73 -15 c-9 -16 -11 -16 -16 -1 -4 9 -2 16 4
16 6 0 7 6 3 13 -5 9 -4 9 6 0 8 -7 9 -16 3 -28z m100 15 c3 6 4 5 3 -2 -1 -7
-15 -13 -31 -14 -24 -1 -26 1 -12 11 9 7 16 14 14 16 -1 2 3 -2 9 -9 8 -9 14
-10 17 -2z m60 -15 c-9 -16 -11 -16 -16 -1 -4 9 -2 16 4 16 6 0 7 6 3 13 -5 9
-4 9 6 0 8 -7 9 -16 3 -28z m100 15 c3 6 4 5 3 -2 -1 -7 -15 -13 -31 -14 -24
-1 -26 1 -12 11 9 7 16 14 14 16 -1 2 3 -2 9 -9 8 -9 14 -10 17 -2z m60 -15
c-9 -16 -11 -16 -16 -1 -4 9 -2 16 4 16 6 0 7 6 3 13 -5 9 -4 9 6 0 8 -7 9
-16 3 -28z m100 15 c3 6 4 5 3 -2 -1 -7 -15 -13 -31 -14 -24 -1 -26 1 -12 11
9 7 16 14 14 16 -1 2 3 -2 9 -9 8 -9 14 -10 17 -2z m60 -15 c-9 -16 -11 -16
-16 -1 -4 9 -2 16 4 16 6 0 7 6 3 13 -5 9 -4 9 6 0 8 -7 9 -16 3 -28z m100 15
c3 6 4 5 3 -2 -1 -7 -15 -13 -31 -14 -24 -1 -26 1 -12 11 9 7 16 14 14 16 -1
2 3 -2 9 -9 8 -9 14 -10 17 -2z m60 -15 c-9 -16 -11 -16 -16 -1 -4 9 -2 16 4
16 6 0 7 6 3 13 -5 9 -4 9 6 0 8 -7 9 -16 3 -28z m100 15 c3 6 4 5 3 -2 -1 -7
-15 -13 -31 -14 -24 -1 -26 1 -12 11 9 7 16 14 14 16 -1 2 3 -2 9 -9 8 -9 14
-10 17 -2z m60 -15 c-9 -16 -11 -16 -16 -1 -4 9 -2 16 4 16 6 0 7 6 3 13 -5 9
-4 9 6 0 8 -7 9 -16 3 -28z m100 15 c3 6 4 5 3 -2 -1 -7 -15 -13 -31 -14 -24
-1 -26 1 -12 11 9 7 16 14 14 16 -1 2 3 -2 9 -9 8 -9 14 -10 17 -2z m60 -15
c-9 -16 -11 -16 -16 -1 -4 9 -2 16 4 16 6 0 7 6 3 13 -5 9 -4 9 6 0 8 -7 9
-16 3 -28z m100 15 c3 6 4 5 3 -2 -1 -7 -15 -13 -31 -14 -24 -1 -26 1 -12 11
9 7 16 14 14 16 -1 2 3 -2 9 -9 8 -9 14 -10 17 -2z m60 -15 c-9 -16 -11 -16
-16 -1 -4 9 -2 16 4 16 6 0 7 6 3 13 -5 9 -4 9 6 0 8 -7 9 -16 3 -28z m100 15
c3 6 4 5 3 -2 -1 -7 -15 -13 -31 -14 -24 -1 -26 1 -12 11 9 7 16 14 14 16 -1
2 3 -2 9 -9 8 -9 14 -10 17 -2z m60 -15 c-9 -16 -11 -16 -16 -1 -4 9 -2 16 4
16 6 0 7 6 3 13 -5 9 -4 9 6 0 8 -7 9 -16 3 -28z m100 15 c3 6 4 5 3 -2 -1 -7
-15 -13 -31 -14 -24 -1 -26 1 -12 11 9 7 16 14 14 16 -1 2 3 -2 9 -9 8 -9 14
-10 17 -2z m60 -15 c-9 -16 -11 -16 -16 -1 -4 9 -2 16 4 16 6 0 7 6 3 13 -5 9
-4 9 6 0 8 -7 9 -16 3 -28z m100 15 c3 6 4 5 3 -2 -1 -7 -15 -13 -31 -14 -24
-1 -26 1 -12 11 9 7 16 14 14 16 -1 2 3 -2 9 -9 8 -9 14 -10 17 -2z m60 -15
c-9 -16 -11 -16 -16 -1 -4 9 -2 16 4 16 6 0 7 6 3 13 -5 9 -4 9 6 0 8 -7 9
-16 3 -28z m100 15 c3 6 4 5 3 -2 -1 -7 -15 -13 -31 -14 -24 -1 -26 1 -12 11
9 7 16 14 14 16 -1 2 3 -2 9 -9 8 -9 14 -10 17 -2z m60 -15 c-9 -16 -11 -16
-16 -1 -4 9 -2 16 4 16 6 0 7 6 3 13 -5 9 -4 9 6 0 8 -7 9 -16 3 -28z m100 15
c3 6 4 5 3 -2 -1 -7 -15 -13 -31 -14 -24 -1 -26 1 -12 11 9 7 16 14 14 16 -1
2 3 -2 9 -9 8 -9 14 -10 17 -2z m60 -15 c-9 -16 -11 -16 -16 -1 -4 9 -2 16 4
16 6 0 7 6 3 13 -5 9 -4 9 6 0 8 -7 9 -16 3 -28z m100 15 c3 6 4 5 3 -2 -1 -7
-15 -13 -31 -14 -24 -1 -26 1 -12 11 9 7 16 14 14 16 -1 2 3 -2 9 -9 8 -9 14
-10 17 -2z m60 -15 c-9 -16 -11 -16 -16 -1 -4 9 -2 16 4 16 6 0 7 6 3 13 -5 9
-4 9 6 0 8 -7 9 -16 3 -28z m-2699 -222 c-3 -36 -2 -35 -14 -28 -7 5 -8 11 -1
19 6 7 6 17 1 26 -6 8 -10 11 -10 7 0 -5 -5 -5 -10 -2 -8 5 -7 12 1 22 12 13
14 13 24 -1 7 -9 11 -28 9 -43z m-108 -81 c-3 -3 0 -12 6 -21 10 -13 10 -14
-2 -4 -16 15 -23 46 -8 37 5 -3 7 -9 4 -12z m0 -88 c1 -9 0 -13 -4 -10 -3 4
-7 14 -8 22 -1 9 0 13 4 10 3 -4 7 -14 8 -22z m78 -62 c3 -5 -1 -9 -9 -9 -8 0
-12 4 -9 9 3 4 7 8 9 8 2 0 6 -4 9 -8z m-79 -11 c3 -5 2 -12 -3 -15 -5 -3 -9
1 -9 9 0 17 3 19 12 6z m-8 -86 c0 -8 -4 -12 -9 -9 -5 3 -6 10 -3 15 9 13 12
11 12 -6z m29 -11 c1 -9 0 -13 -4 -10 -3 4 -7 14 -8 22 -1 9 0 13 4 10 3 -4 7
-14 8 -22z m8 -116 c-12 -18 -12 -89 -1 -113 8 -16 7 -18 -4 -8 -14 14 -21
135 -7 127 4 -3 8 0 8 7 0 7 3 10 6 6 3 -3 2 -12 -2 -19z m-24 -113 c0 -2 -6
-8 -13 -14 -10 -8 -14 -7 -14 2 0 8 6 14 14 14 7 0 13 -1 13 -2z m-16 -51 c3
-8 2 -12 -4 -9 -6 3 -10 10 -10 16 0 14 7 11 14 -7z m3 -89 c0 -8 -4 -12 -9
-9 -5 3 -6 10 -3 15 9 13 12 11 12 -6z m0 -60 c0 -8 -4 -12 -9 -9 -5 3 -6 10
-3 15 9 13 12 11 12 -6z m30 -10 c0 -8 -4 -12 -9 -9 -5 3 -6 10 -3 15 9 13 12
11 12 -6z m-22 -44 c3 -5 2 -12 -3 -15 -5 -3 -9 1 -9 9 0 17 3 19 12 6z m50
-29 c-2 -10 -4 -21 -5 -27 -1 -11 -23 24 -26 41 -1 7 6 9 16 7 10 -3 17 -12
15 -21z m-50 -51 c3 -5 2 -12 -3 -15 -5 -3 -9 1 -9 9 0 17 3 19 12 6z m111
-21 c-2 -16 -1 -32 4 -35 7 -5 6 -38 -6 -110 -9 -59 -9 -90 2 -88 6 1 10 -8
10 -20 -1 -14 4 -21 14 -19 11 3 11 -1 -3 -16 -9 -10 -14 -22 -10 -27 5 -4 2
-5 -5 -1 -7 5 -11 11 -8 14 3 3 -2 14 -11 24 -9 10 -18 35 -19 56 -3 49 -3 49
-13 33 -6 -9 -6 -22 0 -32 6 -11 5 -20 -1 -24 -5 -3 -10 -1 -10 5 0 6 -4 8
-10 5 -5 -3 -10 1 -10 10 0 9 -4 14 -8 11 -5 -3 -9 1 -9 9 0 8 4 12 9 9 8 -5
10 7 11 58 0 15 3 25 7 23 4 -2 7 2 7 10 0 8 -4 12 -8 10 -3 -3 -9 6 -11 19
-4 19 -1 24 14 21 10 -2 16 0 13 6 -4 5 -14 9 -23 10 -11 0 -13 2 -4 6 7 3 21
-2 32 -12 14 -13 20 -14 26 -3 12 19 14 37 4 43 -11 7 -1 35 12 35 5 0 7 -13
4 -30z m-119 -65 c0 -8 -4 -12 -9 -9 -5 3 -6 10 -3 15 9 13 12 11 12 -6z m30
-50 c0 -8 -4 -12 -9 -9 -5 3 -6 10 -3 15 9 13 12 11 12 -6z m-31 -10 c-1 -8
-5 -17 -8 -21 -5 -4 -4 16 1 34 3 9 9 -1 7 -13z m10 -71 c2 -12 0 -14 -9 -5
-6 6 -12 18 -13 27 -2 12 0 14 9 5 6 -6 12 -18 13 -27z m127 -9 c-3 -9 -8 -14
-10 -11 -3 3 -2 9 2 15 9 16 15 13 8 -4z m-102 -78 c-6 -8 -7 -18 -3 -22 4 -5
1 -5 -6 -1 -10 6 -10 11 -1 22 6 8 14 14 16 14 3 0 0 -6 -6 -13z m-34 -42 c0
-8 -4 -12 -9 -9 -5 3 -6 10 -3 15 9 13 12 11 12 -6z m103 -2 c0 5 5 5 10 2 6
-4 8 -11 4 -16 -7 -12 -34 8 -34 25 0 6 5 4 10 -4 5 -8 10 -11 10 -7z m-104
-47 c0 -14 -3 -23 -7 -20 -6 3 -6 22 0 42 3 10 7 -2 7 -22z m137 -52 c-3 -8
-7 -14 -10 -14 -3 0 -3 6 0 14 3 7 0 20 -6 27 -10 11 -9 11 5 0 9 -7 14 -19
11 -27z m-104 9 c-1 -5 -1 -15 0 -23 1 -11 3 -12 9 -3 6 9 14 3 27 -20 14 -23
15 -29 3 -20 -8 7 -18 10 -21 6 -4 -3 -7 -1 -7 6 0 7 -5 9 -12 5 -7 -4 -10 -4
-6 1 4 4 3 15 -2 25 -5 10 -6 20 -3 24 8 8 13 8 12 -1z m-24 -22 c3 -5 2 -12
-3 -15 -5 -3 -9 1 -9 9 0 17 3 19 12 6z m-8 -46 c0 -8 -4 -12 -9 -9 -5 3 -6
10 -3 15 9 13 12 11 12 -6z m-1 -69 c0 -14 -3 -23 -7 -20 -6 3 -6 22 0 42 3
10 7 -2 7 -22z m19 -84 c-3 -3 1 -12 7 -21 10 -13 10 -14 -2 -4 -9 9 -17 9
-26 2 -9 -7 -12 -5 -9 8 4 22 2 20 20 20 8 0 13 -3 10 -5z m74 -145 c3 2 7 -3
7 -10 1 -6 3 -16 4 -22 1 -5 2 -13 2 -16 -1 -4 8 -15 18 -24 19 -17 19 -19 4
-37 -10 -10 -12 -18 -6 -18 12 0 10 -22 -4 -41 -6 -8 -10 -21 -9 -29 0 -8 -4
-18 -9 -22 -5 -3 3 -17 18 -31 20 -18 22 -25 10 -23 -15 1 -23 -15 -26 -51 -1
-7 -5 -13 -10 -13 -5 0 -4 -9 2 -21 8 -15 15 -17 24 -10 9 8 12 -1 11 -42 -1
-29 3 -59 9 -67 9 -13 9 -13 -5 -2 -11 8 -16 26 -14 57 2 35 -1 43 -11 35 -8
-8 -14 -8 -19 0 -3 6 -11 8 -16 5 -5 -4 -9 1 -9 9 0 9 4 16 9 16 5 0 8 7 7 15
-2 17 -16 32 -17 19 -3 -36 -19 -74 -19 -45 0 7 -4 10 -8 7 -5 -3 -8 7 -7 22
1 15 -2 32 -7 39 -6 7 -4 14 3 19 7 4 9 3 5 -4 -9 -15 12 -26 28 -13 7 6 15 9
18 6 3 -3 13 4 23 15 10 11 13 20 7 20 -7 0 -12 -5 -12 -11 0 -5 -5 -7 -10 -4
-6 4 -8 10 -5 15 7 11 -22 7 -32 -5 -4 -4 -3 -5 4 -2 12 8 12 -17 -1 -30 -4
-4 -7 -3 -6 2 1 6 1 12 0 15 -4 12 -6 50 -2 45 3 -3 12 4 19 15 8 11 18 18 23
15 5 -3 12 -1 15 5 4 6 3 9 -2 8 -11 -4 -14 13 -7 35 3 9 10 15 15 11 5 -3 6
-10 3 -16 -4 -7 -2 -8 5 -4 9 6 9 11 1 21 -7 8 -9 19 -6 24 4 5 2 12 -4 16 -5
3 -10 12 -10 18 0 7 7 4 14 -6 8 -10 17 -14 20 -9 3 5 -3 17 -14 27 -13 11
-20 14 -20 6 0 -7 -4 -9 -10 -6 -6 4 -7 -1 -3 -11 4 -12 3 -15 -5 -10 -7 4
-15 0 -19 -9 -5 -16 -7 -15 -17 1 -16 29 -16 43 1 37 11 -4 11 -8 3 -13 -9 -5
-9 -9 -1 -14 6 -4 11 -2 11 3 0 20 2 26 12 38 5 6 17 9 26 6 15 -4 15 -3 2 6
-8 6 -15 15 -15 21 0 5 -4 10 -10 10 -5 0 -10 -9 -10 -19 0 -11 -3 -22 -7 -26
-3 -3 -5 8 -4 25 1 17 -1 33 -6 36 -5 3 -6 10 -2 15 4 6 14 3 26 -8 11 -10 23
-17 27 -16z m-93 -3 c1 -9 0 -13 -4 -10 -3 4 -7 14 -8 22 -1 9 0 13 4 10 3 -4
7 -14 8 -22z m30 -10 c1 -9 0 -13 -4 -10 -3 4 -7 14 -8 22 -1 9 0 13 4 10 3
-4 7 -14 8 -22z m-21 -43 c3 -5 2 -12 -3 -15 -5 -3 -9 1 -9 9 0 17 3 19 12 6z
m93 -50 c1 -1 -6 -18 -17 -40 -11 -21 -18 -41 -15 -43 2 -3 -3 -11 -11 -18
-13 -11 -16 -11 -13 1 2 8 -3 13 -11 11 -12 -3 -12 0 -2 12 7 8 9 21 5 27 -5
8 -3 9 6 4 10 -6 12 -4 7 9 -4 10 -3 15 3 11 6 -3 10 3 10 14 0 17 9 20 38 12z
m-97 -105 c-6 -7 -7 -17 -3 -21 4 -5 1 -5 -6 -1 -9 6 -10 11 -3 20 6 7 7 17 3
21 -4 5 -1 5 6 1 9 -6 10 -11 3 -20z m209 -101 c-23 -25 -50 -25 -29 1 6 7 15
12 19 9 5 -3 11 -1 15 5 3 5 9 10 12 10 4 0 -4 -11 -17 -25z m-204 -21 c0 -13
-2 -22 -5 -19 -3 3 -6 17 -7 31 0 13 2 22 5 19 3 -3 6 -17 7 -31z m83 -162 c7
-13 6 -19 -2 -19 -7 0 -13 9 -13 19 0 10 1 18 3 18 1 0 7 -8 12 -18z m42 -45
c-10 -9 -11 -8 -5 6 3 10 9 15 12 12 3 -3 0 -11 -7 -18z m-126 4 c3 -5 2 -12
-3 -15 -5 -3 -9 1 -9 9 0 17 3 19 12 6z m60 -73 c3 -3 -1 -11 -10 -18 -11 -9
-15 -9 -15 -1 0 7 -4 10 -8 7 -5 -3 -9 1 -9 8 0 12 31 15 42 4z m-60 -7 c3 -5
2 -12 -3 -15 -5 -3 -9 1 -9 9 0 17 3 19 12 6z m0 -100 c3 -5 2 -12 -3 -15 -5
-3 -9 1 -9 9 0 17 3 19 12 6z m-10 -52 c-3 -12 -7 -24 -10 -27 -3 -3 -3 5 -1
19 6 30 5 29 10 29 3 0 3 -10 1 -21z m140 -27 c-2 -9 -4 -19 -5 -22 -1 -3 -2
-8 -1 -12 0 -4 -9 -5 -20 -3 -17 4 -19 2 -9 -10 7 -8 17 -12 24 -8 6 3 8 2 3
-2 -12 -13 -46 -13 -51 1 -2 6 9 24 24 39 16 16 27 33 23 38 -3 6 -1 7 5 4 5
-4 9 -15 7 -25z m-138 -27 c0 -8 -4 -12 -9 -9 -5 3 -6 10 -3 15 9 13 12 11 12
-6z m30 -30 c0 -8 -4 -12 -9 -9 -5 3 -6 10 -3 15 9 13 12 11 12 -6z"/>
<path d="M105 2813 c0 -66 3 -119 8 -116 4 2 5 8 2 13 -5 8 13 25 28 25 4 0 7
5 8 10 1 16 20 35 29 30 5 -3 11 -1 15 5 4 6 10 8 15 5 4 -3 13 2 20 10 7 8 9
15 4 15 -4 0 6 15 24 33 30 30 36 33 96 32 36 0 70 -6 79 -13 13 -11 15 -10
12 5 -1 10 2 24 8 31 8 10 14 9 31 -5 12 -10 18 -14 13 -9 -4 5 2 19 12 30
l20 21 -212 0 -212 0 0 -122z m393 99 c-7 -8 -14 -9 -23 -2 -14 12 -50 -21
-38 -35 5 -4 1 -4 -7 1 -8 5 -42 9 -75 10 -55 0 -63 -2 -97 -34 -20 -20 -34
-40 -31 -46 3 -6 2 -8 -2 -3 -5 4 -17 0 -27 -10 -10 -9 -18 -12 -18 -8 0 4 -9
0 -20 -10 -11 -10 -17 -23 -13 -29 3 -6 3 -8 -2 -4 -4 4 -13 4 -19 -1 -8 -7
-11 17 -10 87 1 53 2 97 3 97 0 0 88 0 195 0 156 0 192 -2 184 -13z"/>
<path d="M125 2833 l0 -82 27 26 c16 15 28 23 28 18 0 -5 26 16 58 46 l57 56
68 -2 c37 0 72 4 77 10 6 7 -42 10 -153 10 l-162 0 0 -82z m113 20 c-29 -29
-54 -50 -57 -48 -2 3 -14 -4 -26 -15 l-21 -19 2 67 c1 37 2 67 3 67 0 0 35 0
76 0 l75 0 -52 -52z"/>
<path d="M145 2843 c0 -47 1 -51 16 -37 8 8 18 12 20 9 3 -2 24 15 47 38 l42
42 -63 0 -62 0 0 -52z m73 10 c-17 -18 -34 -31 -36 -28 -3 3 -10 0 -17 -5 -8
-7 -11 1 -9 28 1 20 2 37 3 37 1 0 21 1 46 1 l45 0 -32 -33z"/>
<path d="M164 2855 c0 -12 6 -22 13 -22 7 0 22 10 33 22 l19 21 -32 0 c-27 0
-33 -4 -33 -21z m35 -2 c-6 -7 -15 -10 -20 -7 -13 8 -3 21 15 21 12 0 13 -4 5
-14z"/>
<path d="M161 2664 c20 -24 20 -95 1 -119 -11 -13 -7 -12 11 4 15 14 27 21 27
17 0 -5 6 -3 13 3 8 6 17 8 20 5 4 -4 4 4 0 17 -3 13 -6 36 -6 51 -1 21 -4 25
-14 16 -7 -5 -11 -14 -8 -18 3 -5 1 -11 -5 -15 -6 -4 -7 -11 -4 -17 4 -6 9 -5
15 3 6 10 8 7 6 -8 0 -12 -5 -19 -11 -16 -5 4 -6 0 -1 -8 5 -8 4 -11 -1 -6 -5
5 -10 13 -10 18 -1 5 -2 10 -4 12 -1 1 -3 10 -5 20 -2 11 1 15 8 10 7 -3 1 6
-12 20 -26 29 -42 37 -20 11z"/>
<path d="M140 2325 c-8 -20 -16 -32 -19 -27 -3 4 -13 8 -21 7 -16 0 -21 -35
-5 -36 6 0 18 -7 27 -16 16 -14 17 -14 13 8 -3 13 3 31 12 41 19 21 25 45 14
53 -4 2 -14 -11 -21 -30z m-24 -47 c12 -14 13 -18 3 -10 -9 6 -18 10 -21 7 -2
-3 -5 2 -5 10 0 19 0 19 23 -7z"/>
<path d="M163 2213 c4 -3 1 -13 -6 -22 -11 -14 -10 -14 5 -2 16 12 16 31 1 31
-4 0 -3 -3 0 -7z"/>
<path d="M55 2201 c-3 -5 -2 -12 3 -15 5 -3 9 1 9 9 0 17 -3 19 -12 6z"/>
<path d="M116 2048 c3 -5 10 -6 15 -3 13 9 11 12 -6 12 -8 0 -12 -4 -9 -9z"/>
<path d="M95 2034 c1 -11 8 -18 14 -16 6 1 11 -4 11 -12 0 -8 7 -13 15 -12 9
1 15 5 15 9 0 4 -2 6 -4 5 -3 -2 -16 8 -29 21 -22 20 -25 21 -22 5z"/>
<path d="M142 1608 c-5 -7 -8 -23 -6 -36 2 -14 0 -21 -6 -17 -6 4 -7 -1 -3
-11 4 -12 3 -15 -5 -10 -7 4 -12 2 -12 -4 0 -6 -5 -8 -12 -4 -10 6 -10 4 0 -8
7 -9 9 -19 4 -22 -13 -8 -22 -45 -13 -50 4 -3 8 5 8 17 1 12 9 27 17 33 9 6
12 15 8 20 -4 4 0 3 9 -3 12 -10 15 -8 16 10 1 12 3 39 6 60 5 41 4 43 -11 25z"/>
<path d="M140 1401 c15 -30 30 -35 17 -6 -7 14 -16 25 -20 25 -4 0 -3 -9 3
-19z"/>
<path d="M74 546 c1 -8 5 -18 8 -22 4 -3 5 1 4 10 -1 8 -5 18 -8 22 -4 3 -5
-1 -4 -10z"/>
<path d="M90 711 c-7 -15 -7 -22 2 -27 7 -4 10 -4 6 1 -4 4 -3 16 3 26 5 11 7
19 5 19 -3 0 -10 -9 -16 -19z"/>
<path d="M65 2795 c0 -68 2 -122 5 -120 7 4 7 232 0 239 -3 2 -5 -51 -5 -119z"/>
<path d="M575 2790 c7 -11 -20 -31 -30 -22 -5 4 -5 1 -1 -6 6 -9 11 -10 20 -3
13 11 26 5 26 -11 0 -5 -4 -7 -9 -3 -5 3 -13 1 -16 -5 -5 -8 -11 -8 -20 0 -9
7 -15 7 -19 1 -4 -5 -15 -8 -26 -6 -11 2 -22 0 -25 -5 -3 -5 3 -7 15 -5 11 2
22 -1 26 -6 3 -6 11 -6 17 -1 7 4 51 8 98 7 57 0 86 3 86 11 0 6 -12 10 -26 8
-14 -1 -26 -3 -26 -4 0 -7 -36 -6 -41 1 -3 5 -10 7 -15 4 -13 -9 -11 9 3 23 9
9 15 9 27 -1 14 -11 14 -10 3 5 -8 10 -17 17 -20 16 -4 0 -9 1 -12 2 -18 7
-39 7 -35 0z m29 -21 c-3 -5 -10 -7 -15 -3 -5 3 -7 10 -3 15 3 5 10 7 15 3 5
-3 7 -10 3 -15z"/>
<path d="M513 2765 c0 -8 4 -12 9 -9 5 3 6 10 3 15 -9 13 -12 11 -12 -6z"/>
<path d="M2735 2751 c-3 -5 -14 -8 -25 -6 -11 2 -22 -1 -25 -6 -4 -5 -12 -6
-18 -2 -17 11 -57 11 -63 1 -3 -4 -11 -5 -17 -1 -17 11 -57 11 -63 1 -3 -4
-11 -5 -17 -1 -17 11 -57 11 -63 1 -3 -4 -11 -5 -17 -1 -17 11 -57 11 -63 1
-3 -4 -11 -5 -17 -1 -17 11 -57 11 -63 1 -3 -4 -11 -5 -17 -1 -17 11 -57 11
-63 1 -3 -4 -11 -5 -17 -1 -17 11 -57 11 -63 1 -3 -4 -11 -5 -17 -1 -17 11
-57 11 -63 1 -3 -4 -11 -5 -17 -1 -17 11 -57 11 -63 1 -3 -4 -11 -5 -17 -1
-17 11 -57 11 -63 1 -3 -4 -11 -5 -17 -1 -17 11 -57 11 -63 1 -3 -4 -11 -5
-17 -1 -17 11 -57 11 -63 1 -3 -4 -11 -5 -17 -1 -17 11 -57 11 -63 1 -3 -4
-11 -5 -17 -1 -17 11 -57 11 -63 1 -3 -4 -11 -5 -17 -1 -17 11 -57 11 -63 1
-3 -4 -11 -5 -17 -1 -17 11 -57 11 -63 1 -3 -4 -11 -5 -17 -1 -17 11 -57 11
-63 1 -3 -4 -11 -5 -17 -1 -17 11 -57 11 -63 1 -3 -4 -11 -5 -17 -1 -17 11
-57 11 -63 1 -3 -4 -11 -5 -17 -1 -17 11 -57 11 -63 1 -3 -4 -11 -5 -17 -1
-17 11 -57 11 -63 1 -3 -4 -11 -5 -17 -1 -17 11 -57 11 -63 1 -3 -4 -11 -5
-17 -1 -17 11 -57 11 -63 1 -3 -4 -11 -5 -17 -1 -17 11 -57 11 -63 1 -3 -5
-11 -5 -18 1 -9 8 -13 7 -13 -2 0 -9 30 -12 119 -12 66 0 122 -3 124 -7 3 -5
11 -5 17 -1 16 10 297 10 304 1 2 -5 10 -5 16 -1 16 10 297 10 304 1 2 -5 10
-5 16 -1 16 10 297 10 304 1 2 -5 10 -5 16 -1 16 10 297 10 304 1 2 -5 10 -5
16 -1 16 10 297 10 304 0 3 -4 10 -4 16 1 15 10 247 10 264 -1 6 -4 14 -4 17
1 3 5 28 8 55 7 38 -1 48 1 41 10 -11 13 -48 14 -67 2 -6 -4 -15 -3 -18 3 -4
7 -12 7 -18 2 -11 -7 -49 -9 -62 -2 -3 1 -13 3 -22 4 -10 1 -23 5 -30 9 -6 4
-14 3 -18 -2z m19 -9 c3 -5 -1 -9 -9 -9 -8 0 -12 4 -9 9 3 4 7 8 9 8 2 0 6 -4
9 -8z"/>
<path d="M405 2741 c-3 -6 -14 -8 -25 -6 -11 2 -22 0 -24 -4 -5 -7 39 -7 54
-1 3 1 9 2 13 1 5 -1 6 3 2 9 -8 12 -12 13 -20 1z"/>
<path d="M419 2704 c-9 -11 -15 -12 -26 -2 -11 9 -13 8 -11 -2 2 -8 -2 -14 -9
-15 -6 0 -15 -3 -19 -7 -4 -4 -14 -2 -23 5 -14 10 -14 10 -4 -3 14 -18 2 -42
-22 -46 -11 -2 -15 3 -11 12 3 9 1 12 -4 9 -6 -4 -8 -18 -6 -32 5 -27 16 -44
16 -25 0 6 9 9 19 7 13 -2 18 2 16 13 -4 28 13 51 35 47 11 -2 19 1 17 8 -1 7
8 11 20 11 12 -1 21 4 20 10 -1 6 8 10 21 10 12 -1 20 1 17 4 -11 12 -34 10
-46 -4z m-94 -83 c-9 -8 -36 -10 -30 -2 2 4 11 8 20 8 8 0 13 -3 10 -6z"/>
<path d="M310 2579 c0 -5 -4 -7 -10 -4 -14 9 -12 -1 3 -13 10 -8 13 -6 14 9 1
10 0 19 -3 19 -2 0 -4 -5 -4 -11z"/>
<path d="M274 2539 c-4 -7 -3 -9 4 -5 5 3 13 0 15 -6 4 -9 6 -10 6 -1 1 17
-16 25 -25 12z"/>
<path d="M200 2518 c0 -3 6 -11 14 -17 10 -9 17 -7 27 6 12 16 12 17 -2 6 -12
-10 -18 -10 -27 -1 -7 7 -12 9 -12 6z"/>
<path d="M261 2513 c1 -4 0 -10 -1 -13 -6 -15 -6 -48 0 -45 4 2 6 -25 5 -60
-1 -35 1 -62 5 -60 3 2 5 25 5 52 -1 26 3 56 8 67 6 13 6 16 -2 11 -8 -4 -10
2 -7 19 3 14 0 28 -5 32 -5 3 -9 2 -8 -3z"/>
<path d="M227 2447 c-3 -8 1 -14 8 -14 7 0 11 6 8 14 -3 7 -6 13 -8 13 -2 0
-5 -6 -8 -13z"/>
<path d="M219 2418 c-6 -20 -6 -39 0 -42 4 -3 7 6 7 20 0 20 -4 32 -7 22z"/>
<path d="M628 2402 c-15 -2 -41 -17 -57 -33 l-30 -30 1 -839 c1 -497 5 -840
10 -840 5 0 7 -4 4 -9 -3 -5 1 -14 9 -21 8 -7 15 -18 15 -25 0 -7 7 -16 16
-19 10 -4 13 -2 8 6 -5 7 -3 8 7 2 8 -4 21 -11 29 -13 29 -10 1720 -11 1720
-1 0 5 7 7 15 4 21 -8 64 22 77 54 11 28 19 1470 8 1477 -3 2 -5 49 -5 104 1
60 -3 101 -9 101 -5 0 -7 3 -3 6 9 9 -22 66 -33 59 -4 -3 -10 0 -12 7 -4 10
-195 13 -874 13 -478 0 -881 -1 -896 -3z m182 -157 l0 -95 -100 0 -100 0 0 95
0 95 100 0 100 0 0 -95z m1580 0 l0 -95 -775 0 -775 0 0 95 0 95 775 0 775 0
0 -95z m-1580 -855 l0 -740 -100 0 -100 0 0 740 0 740 100 0 100 0 0 -740z
m1580 0 l0 -740 -775 0 -775 0 0 740 0 740 775 0 775 0 0 -740z"/>
<path d="M275 2320 c-4 -6 -10 -8 -14 -6 -4 3 -8 -1 -8 -9 0 -8 4 -12 9 -9 11
7 10 -3 -3 -27 -10 -19 -29 -18 -29 2 0 6 5 7 11 3 8 -5 8 -1 0 13 -6 11 -8
22 -6 25 3 3 -2 5 -10 5 -11 0 -12 -4 -4 -13 7 -9 7 -19 -1 -34 -8 -16 -8 -20
2 -18 13 3 15 -20 6 -52 -3 -8 -3 -12 -1 -7 3 4 9 4 14 1 6 -3 5 -11 -2 -20
-8 -10 -15 -11 -24 -4 -10 8 -15 8 -21 -1 -4 -7 -3 -9 4 -5 6 3 13 2 16 -3 4
-5 14 -8 24 -6 9 1 22 -1 28 -6 7 -5 11 -3 11 6 0 7 -4 13 -8 12 -4 -1 -7 3
-7 8 0 6 3 9 8 8 4 -1 6 12 5 30 -1 18 3 38 9 46 8 11 8 13 -1 8 -13 -8 -12
30 1 51 4 7 5 12 2 12 -3 0 -8 -5 -11 -10z m-9 -92 c-1 -19 -5 -31 -11 -28
-13 6 -14 31 -2 48 13 17 13 16 13 -20z"/>
<path d="M234 2096 c1 -22 -3 -42 -9 -42 -5 -1 -9 3 -7 9 2 7 -2 6 -11 -1 -8
-7 -17 -10 -20 -7 -4 3 -4 2 -1 -2 3 -5 11 -8 17 -8 7 0 12 -12 12 -27 0 -15
6 -32 13 -37 9 -8 9 -8 2 1 -16 20 -11 31 8 17 14 -11 13 -10 -2 9 -17 20 -15
27 7 23 5 -1 6 3 3 8 -6 10 18 34 26 26 3 -3 5 8 4 24 -1 32 -9 44 -29 47 -9
1 -13 -11 -13 -40z m33 5 c1 -11 -3 -24 -11 -30 -11 -9 -13 -5 -11 21 2 18 3
35 4 37 2 9 15 -11 18 -28z"/>
<path d="M269 2048 c-4 -12 -5 -57 0 -53 6 6 10 55 4 55 -1 0 -3 -1 -4 -2z"/>
<path d="M216 1928 c3 -5 10 -6 15 -3 13 9 11 12 -6 12 -8 0 -12 -4 -9 -9z"/>
<path d="M257 1918 c3 -17 2 -19 -5 -10 -7 11 -10 10 -16 -3 -5 -15 -9 -15
-24 -4 -16 13 -16 13 0 -7 12 -14 14 -24 8 -30 -7 -7 -6 -11 3 -11 8 0 14 10
13 21 -1 15 5 21 20 20 16 -1 20 3 16 18 -7 27 -21 32 -15 6z"/>
<path d="M254 1854 c0 -12 4 -20 8 -18 11 7 10 -8 -2 -26 -9 -13 -10 -13 -10
0 -1 12 -3 11 -11 -3 -8 -13 -14 -15 -23 -8 -9 8 -13 7 -13 -3 0 -12 16 -14
37 -6 3 1 8 2 12 1 15 -2 30 40 19 53 -7 8 -7 16 0 23 6 6 5 10 -4 10 -7 0
-13 -11 -13 -23z"/>
<path d="M217 1823 c3 -7 6 -13 8 -13 2 0 5 6 8 13 3 8 -1 14 -8 14 -7 0 -11
-6 -8 -14z"/>
<path d="M269 1645 c-1 -3 -2 -20 -3 -37 -1 -18 -7 -32 -12 -31 -6 1 -11 -5
-11 -12 0 -10 4 -12 12 -5 7 5 14 8 16 5 3 -2 5 16 5 41 0 38 -3 55 -7 39z"/>
<path d="M223 1605 c0 -6 6 -12 12 -12 6 0 12 6 12 12 0 6 -6 12 -12 12 -6 0
-12 -6 -12 -12z"/>
<path d="M269 1548 c-4 -10 -4 -77 0 -72 6 5 10 74 4 74 -2 0 -3 -1 -4 -2z"/>
<path d="M256 1448 c3 -5 10 -6 15 -3 13 9 11 12 -6 12 -8 0 -12 -4 -9 -9z"/>
<path d="M237 1426 c-4 -9 -11 -15 -16 -11 -5 3 -13 0 -17 -6 -4 -8 -3 -9 5
-5 7 4 15 -2 20 -16 10 -27 5 -41 -12 -31 -9 5 -9 3 0 -8 10 -12 11 -24 4 -58
-1 -2 -7 2 -15 8 -10 8 -16 9 -21 1 -6 -10 -5 -12 18 -14 6 0 12 -6 12 -13 0
-6 3 -14 6 -18 4 -3 6 4 5 17 -1 23 19 32 40 17 6 -5 10 1 10 16 0 18 -3 22
-12 14 -9 -7 -16 -5 -23 10 -7 13 -8 22 -1 26 10 6 14 -1 11 -19 -1 -5 5 -4
14 4 11 10 13 16 4 26 -6 8 -15 11 -20 8 -5 -3 -9 2 -9 10 0 9 0 18 0 21 0 3
3 5 8 4 4 -1 6 -6 4 -12 -2 -7 0 -8 4 -4 11 11 14 38 4 32 -5 -3 -10 0 -12 7
-3 7 -7 5 -11 -6z"/>
<path d="M243 1265 c0 -8 4 -12 9 -9 5 3 6 10 3 15 -9 13 -12 11 -12 -6z"/>
<path d="M229 1230 c-1 -8 -1 -21 0 -29 2 -8 -2 -10 -11 -5 -10 6 -11 5 -1 -8
7 -8 11 -18 8 -21 -3 -4 -2 -4 3 -1 7 5 8 9 11 37 1 8 4 8 10 -3 6 -8 8 -17 5
-21 -2 -4 0 -10 5 -14 6 -3 8 4 6 16 -3 13 1 30 8 38 10 14 10 14 -5 3 -14
-11 -18 -10 -27 5 -8 14 -11 15 -12 3z"/>
<path d="M136 1192 c-3 -6 -1 -14 5 -18 8 -5 8 -9 -1 -14 -8 -5 -8 -10 -2 -14
18 -11 33 19 18 39 -8 12 -15 14 -20 7z"/>
<path d="M237 1146 c-4 -10 -12 -14 -19 -10 -9 6 -9 3 1 -9 7 -9 11 -24 7 -32
-3 -10 -2 -13 5 -10 5 4 9 14 7 23 -1 10 2 18 7 19 6 0 9 -4 7 -10 -2 -7 0 -8
4 -4 11 11 14 38 4 32 -5 -3 -10 0 -12 7 -3 7 -7 5 -11 -6z"/>
<path d="M90 1110 c0 -5 5 -10 11 -10 5 0 7 5 4 10 -3 6 -8 10 -11 10 -2 0 -4
-4 -4 -10z"/>
<path d="M233 1050 c-6 -21 -6 -42 -1 -52 8 -17 4 -22 -15 -19 -5 1 -6 -3 -2
-9 3 -6 12 -7 18 -3 7 4 17 8 22 8 6 1 9 7 7 14 -1 7 3 21 10 30 11 14 11 14
-3 4 -9 -7 -19 -10 -22 -6 -11 10 -8 45 2 38 5 -3 13 0 17 6 4 7 3 9 -4 5 -5
-3 -12 0 -15 6 -2 7 -9 -3 -14 -22z m17 -50 c6 -11 8 -20 6 -20 -3 0 -10 9
-16 20 -6 11 -8 20 -6 20 3 0 10 -9 16 -20z"/>
<path d="M96 1031 c-14 -15 -15 -21 -4 -27 7 -4 10 -3 5 1 -4 5 0 17 10 27 9
10 14 18 11 18 -3 0 -13 -9 -22 -19z"/>
<path d="M231 947 c-8 -10 -7 -14 2 -14 8 0 14 6 14 14 0 7 -1 13 -2 13 -2 0
-8 -6 -14 -13z"/>
<path d="M265 925 c0 -18 3 -36 6 -39 3 -3 5 10 4 29 0 18 -3 36 -6 39 -3 3
-5 -10 -4 -29z"/>
<path d="M209 903 c-12 -16 -12 -17 2 -6 23 19 32 3 12 -21 -18 -21 -18 -21 4
-2 18 15 20 22 12 33 -14 16 -14 16 -30 -4z"/>
<path d="M253 852 c0 -11 5 -18 11 -15 6 4 6 -1 2 -13 -5 -14 -4 -16 5 -7 9 9
8 17 -4 34 -16 21 -16 21 -14 1z"/>
<path d="M193 806 c-3 -6 -3 -8 2 -4 4 4 13 3 20 -2 8 -7 12 -5 12 3 0 16 -25
18 -34 3z"/>
<path d="M262 788 c2 -7 -2 -12 -8 -11 -6 1 -11 -4 -11 -11 0 -20 30 -13 33 7
1 9 -2 20 -7 23 -5 3 -8 0 -7 -8z"/>
<path d="M219 778 c-5 -18 -6 -38 -1 -34 7 8 12 36 6 36 -2 0 -4 -1 -5 -2z"/>
<path d="M253 724 c0 -7 5 -10 10 -7 6 4 8 0 4 -10 -3 -9 -3 -19 2 -21 4 -3 7
8 7 23 0 15 -5 28 -11 28 -6 0 -12 -6 -12 -13z"/>
<path d="M216 708 c3 -5 10 -6 15 -3 13 9 11 12 -6 12 -8 0 -12 -4 -9 -9z"/>
<path d="M223 506 c1 -5 -3 -10 -10 -11 -6 0 -14 -3 -18 -7 -6 -5 19 -4 35 2
3 1 8 2 11 2 3 -1 6 5 6 12 0 7 -6 13 -13 13 -7 0 -12 -5 -11 -11z"/>
<path d="M263 505 c0 -8 4 -12 9 -9 5 3 6 10 3 15 -9 13 -12 11 -12 -6z"/>
<path d="M259 468 c-4 -12 -5 -57 0 -53 6 6 10 55 4 55 -1 0 -3 -1 -4 -2z"/>
<path d="M219 447 c7 -7 7 -15 1 -22 -7 -8 -5 -12 3 -12 7 0 13 10 13 22 0 12
-6 22 -13 22 -9 0 -10 -4 -4 -10z"/>
<path d="M75 390 c3 -5 8 -10 11 -10 2 0 4 5 4 10 0 6 -5 10 -11 10 -5 0 -7
-4 -4 -10z"/>
<path d="M217 387 c-3 -8 1 -14 8 -14 7 0 11 6 8 14 -3 7 -6 13 -8 13 -2 0 -5
-6 -8 -13z"/>
<path d="M225 339 c1 -10 4 -21 8 -24 4 -3 5 -2 2 1 -2 4 0 14 5 24 6 12 5 17
-4 17 -7 0 -12 -8 -11 -18z"/>
<path d="M253 325 c0 -8 4 -12 9 -9 5 3 6 10 3 15 -9 13 -12 11 -12 -6z"/>
<path d="M265 281 c-3 -6 -14 -8 -24 -6 -10 2 -18 -3 -18 -11 0 -10 4 -11 13
-3 9 7 15 5 23 -8 6 -10 11 -13 11 -8 1 6 3 18 5 28 4 19 -1 22 -10 8z"/>
<path d="M235 240 c-4 -6 -12 -7 -18 -3 -7 4 -7 0 1 -10 8 -9 11 -20 8 -25 -3
-5 1 -9 9 -9 10 0 11 5 5 17 -6 11 -5 21 2 28 7 7 9 12 6 12 -4 0 -10 -5 -13
-10z"/>
<path d="M132 198 c-7 -7 -12 -8 -12 -4 0 5 -7 3 -15 -4 -10 -9 -15 -9 -15 -1
0 6 -5 11 -10 11 -6 0 -3 -11 6 -25 12 -18 20 -22 29 -15 6 5 16 6 20 2 5 -4
5 -1 1 6 -4 7 -2 19 4 27 15 18 9 20 -8 3z m-21 -31 c-10 -9 -11 -8 -5 6 3 10
9 15 12 12 3 -3 0 -11 -7 -18z"/>
<path d="M264 198 c-4 -6 -8 -22 -9 -35 0 -13 -5 -22 -10 -21 -6 2 -9 11 -9
21 1 10 -1 15 -4 12 -3 -2 -12 1 -21 7 -10 8 -9 4 3 -10 11 -12 16 -23 13 -23
-4 -1 -11 -2 -16 -3 -5 0 -12 -4 -16 -8 -4 -3 1 -5 12 -4 26 5 34 -3 24 -23
-7 -13 -6 -18 4 -18 7 0 11 7 8 14 -3 8 0 13 7 11 9 -2 14 9 15 32 1 20 5 41
9 48 4 7 5 12 2 12 -3 0 -8 -5 -12 -12z"/>
<path d="M269 108 c-5 -18 -6 -38 -1 -34 7 8 12 36 6 36 -2 0 -4 -1 -5 -2z"/>
<path d="M216 48 c3 -5 10 -6 15 -3 13 9 11 12 -6 12 -8 0 -12 -4 -9 -9z"/>
<path d="M256 48 c3 -5 10 -6 15 -3 13 9 11 12 -6 12 -8 0 -12 -4 -9 -9z"/>
<path d="M237 26 c-4 -11 -5 -21 -2 -24 3 -3 5 0 5 7 0 7 4 10 9 6 5 -3 13 0
17 6 4 7 3 9 -4 5 -5 -3 -12 -1 -14 6 -3 7 -7 5 -11 -6z"/>
</g>
</svg>
