<?xml version="1.0" standalone="no"?>
<!DOCTYPE svg PUBLIC "-//W3C//DTD SVG 20010904//EN"
 "http://www.w3.org/TR/2001/REC-SVG-20010904/DTD/svg10.dtd">
<svg version="1.0" xmlns="http://www.w3.org/2000/svg"
 width="750.000000pt" height="750.000000pt" viewBox="0 0 750.000000 750.000000"
 preserveAspectRatio="xMidYMid meet">
<metadata>
Created by potrace 1.14, written by Peter Selinger 2001-2017
</metadata>
<g transform="translate(0.000000,750.000000) scale(0.100000,-0.100000)"
fill="#000000" stroke="none">
<path d="M0 3750 l0 -3750 3750 0 3750 0 0 3750 0 3750 -3750 0 -3750 0 0
-3750z m3455 2896 c26 -11 35 -21 35 -39 0 -38 -1029 -2849 -1051 -2872 -17
-17 -33 -20 -114 -20 -83 0 -97 3 -116 21 l-21 22 517 1418 c284 781 523 1429
531 1442 8 13 25 27 37 32 35 14 144 11 182 -4z m-1457 -698 c15 -15 16 -188
1 -221 -9 -19 -133 -84 -569 -298 -307 -151 -555 -277 -551 -281 3 -3 249
-124 546 -268 297 -144 549 -271 560 -281 17 -17 20 -35 23 -122 6 -172 81
-194 -707 204 -458 231 -688 352 -699 368 -19 28 -22 174 -4 207 7 14 213 122
594 314 321 161 625 315 676 342 98 51 111 55 130 36z m2424 -333 c484 -243
673 -343 685 -361 22 -34 22 -174 0 -207 -9 -14 -271 -151 -697 -366 -614
-309 -683 -342 -697 -328 -19 19 -22 192 -3 227 9 16 177 104 572 299 l559
276 -555 269 c-306 148 -563 277 -572 287 -12 13 -16 42 -17 121 -1 114 4 133
37 124 11 -3 321 -157 688 -341z"/>
</g>
</svg>
